<?xml version="1.0" encoding="UTF-8" standalone="no"?>
<svg width="900" height="600" xmlns="http://www.w3.org/2000/svg">
  <!-- Background -->
  <rect width="900" height="600" fill="#f8f9fa" />
  
  <!-- Title -->
  <text x="450" y="40" font-family="Arial" font-size="24" text-anchor="middle" font-weight="bold">TourChain Smart Contract Architecture</text>
  
  <!-- EVM Container -->
  <rect x="50" y="80" width="800" height="480" rx="10" ry="10" fill="#e5f7ff" stroke="#0072b2" stroke-width="2" opacity="0.3" />
  <text x="450" y="100" font-family="Arial" font-size="16" text-anchor="middle" font-weight="bold">Ethereum Virtual Machine (EVM) Environment</text>
  
  <!-- Core Contracts -->
  <!-- TourToken -->
  <rect x="100" y="130" width="180" height="100" rx="5" ry="5" fill="#4dabf7" stroke="#1864ab" stroke-width="2" />
  <text x="190" y="155" font-family="Arial" font-size="14" text-anchor="middle" fill="white" font-weight="bold">TourToken (ERC-20)</text>
  <line x1="100" y1="165" x2="280" y2="165" stroke="white" stroke-width="1" />
  <text x="110" y="185" font-family="Arial" font-size="12" fill="white">• Utility Token</text>
  <text x="110" y="205" font-family="Arial" font-size="12" fill="white">• Governance</text>
  <text x="110" y="225" font-family="Arial" font-size="12" fill="white">• Rewards Distribution</text>
  
  <!-- Travel Management -->
  <rect x="350" y="130" width="180" height="100" rx="5" ry="5" fill="#4c6ef5" stroke="#364fc7" stroke-width="2" />
  <text x="440" y="155" font-family="Arial" font-size="14" text-anchor="middle" fill="white" font-weight="bold">Travel Management</text>
  <line x1="350" y1="165" x2="530" y2="165" stroke="white" stroke-width="1" />
  <text x="360" y="185" font-family="Arial" font-size="12" fill="white">• Trip Booking</text>
  <text x="360" y="205" font-family="Arial" font-size="12" fill="white">• Expense Tracking</text>
  <text x="360" y="225" font-family="Arial" font-size="12" fill="white">• Policy Enforcement</text>
  
  <!-- Carbon Offset -->
  <rect x="600" y="130" width="180" height="100" rx="5" ry="5" fill="#82c91e" stroke="#5c940d" stroke-width="2" />
  <text x="690" y="155" font-family="Arial" font-size="14" text-anchor="middle" fill="white" font-weight="bold">Carbon Offset</text>
  <line x1="600" y1="165" x2="780" y2="165" stroke="white" stroke-width="1" />
  <text x="610" y="185" font-family="Arial" font-size="12" fill="white">• Emissions Calculation</text>
  <text x="610" y="205" font-family="Arial" font-size="12" fill="white">• Credit Tokenization</text>
  <text x="610" y="225" font-family="Arial" font-size="12" fill="white">• Offset Verification</text>
  
  <!-- ERC-4337 -->
  <rect x="200" y="270" width="500" height="80" rx="5" ry="5" fill="#9775fa" stroke="#7048e8" stroke-width="2" />
  <text x="450" y="300" font-family="Arial" font-size="14" text-anchor="middle" fill="white" font-weight="bold">ERC-4337 Account Abstraction Layer</text>
  <line x1="200" y1="310" x2="700" y2="310" stroke="white" stroke-width="1" />
  <text x="210" y="330" font-family="Arial" font-size="12" fill="white">• User Experience Simplification • Gasless Transactions • Multi-Signature Authorization</text>
  
  <!-- Oracle Integration -->
  <rect x="100" y="390" width="700" height="100" rx="5" ry="5" fill="#ff922b" stroke="#e67700" stroke-width="2" />
  <text x="450" y="415" font-family="Arial" font-size="14" text-anchor="middle" fill="white" font-weight="bold">Oracle Integration Layer</text>
  <line x1="100" y1="425" x2="800" y2="425" stroke="white" stroke-width="1" />
  
  <!-- Oracle Sections -->
  <rect x="120" y="435" width="150" height="40" rx="5" ry="5" fill="#f76707" stroke="#d9480f" stroke-width="1" />
  <text x="195" y="460" font-family="Arial" font-size="12" text-anchor="middle" fill="white">Flight Data Oracle</text>
  
  <rect x="290" y="435" width="150" height="40" rx="5" ry="5" fill="#f76707" stroke="#d9480f" stroke-width="1" />
  <text x="365" y="460" font-family="Arial" font-size="12" text-anchor="middle" fill="white">Hotel Data Oracle</text>
  
  <rect x="460" y="435" width="150" height="40" rx="5" ry="5" fill="#f76707" stroke="#d9480f" stroke-width="1" />
  <text x="535" y="460" font-family="Arial" font-size="12" text-anchor="middle" fill="white">Carbon Data Oracle</text>
  
  <rect x="630" y="435" width="150" height="40" rx="5" ry="5" fill="#f76707" stroke="#d9480f" stroke-width="1" />
  <text x="705" y="460" font-family="Arial" font-size="12" text-anchor="middle" fill="white">AI Analytics Oracle</text>
  
  <!-- Network Section -->
  <text x="450" y="510" font-family="Arial" font-size="16" text-anchor="middle" font-weight="bold">Supported Networks</text>
  
  <!-- Network Icons -->
  <circle cx="250" y="550" r="20" fill="#627eea" />
  <text x="250" y="555" font-family="Arial" font-size="12" text-anchor="middle" fill="white">ETH</text>
  
  <circle cx="330" y="550" r="20" fill="#8247e5" />
  <text x="330" y="555" font-family="Arial" font-size="12" text-anchor="middle" fill="white">MATIC</text>
  
  <circle cx="410" y="550" r="20" fill="#28a0f0" />
  <text x="410" y="555" font-family="Arial" font-size="12" text-anchor="middle" fill="white">ARB</text>
  
  <circle cx="490" y="550" r="20" fill="#ff0420" />
  <text x="490" y="555" font-family="Arial" font-size="12" text-anchor="middle" fill="white">OP</text>
  
  <circle cx="570" y="550" r="20" fill="#f0b90b" />
  <text x="570" y="555" font-family="Arial" font-size="12" text-anchor="middle" fill="white">BNB</text>
  
  <!-- Connection Lines -->
  <line x1="190" y1="230" x2="190" y2="270" stroke="#666" stroke-width="2" stroke-dasharray="5,5" />
  <line x1="440" y1="230" x2="440" y2="270" stroke="#666" stroke-width="2" stroke-dasharray="5,5" />
  <line x1="690" y1="230" x2="690" y2="270" stroke="#666" stroke-width="2" stroke-dasharray="5,5" />
  <line x1="450" y1="350" x2="450" y2="390" stroke="#666" stroke-width="2" stroke-dasharray="5,5" />
  
  <!-- External World Connection -->
  <path d="M 450,490 L 450,520" stroke="#666" stroke-width="2" />
  
  <!-- Footer -->
  <text x="450" y="585" font-family="Arial" font-size="10" text-anchor="middle" fill="#666">TourChain - Q2 2025 - Documentação Técnica</text>
</svg>